<svg xmlns="http://www.w3.org/2000/svg" viewBox="0 0 512 512">
  <defs>
    <linearGradient id="bg" x1="0%" y1="0%" x2="100%" y2="100%">
      <stop offset="0%" style="stop-color:#007AFF"/>
      <stop offset="100%" style="stop-color:#5856D6"/>
    </linearGradient>
  </defs>
  <rect width="512" height="512" rx="108" fill="url(#bg)"/>
  <g fill="white">
    <!-- U letter stylized -->
    <path d="M156 140 L156 300 C156 355 200 400 256 400 C312 400 356 355 356 300 L356 140 L306 140 L306 300 C306 327 284 350 256 350 C228 350 206 327 206 300 L206 140 Z"/>
    <!-- Graduation cap -->
    <path d="M256 100 L176 140 L256 180 L336 140 Z"/>
    <rect x="246" y="160" width="20" height="50"/>
    <path d="M216 200 L216 240 C216 262 234 280 256 280 C278 280 296 262 296 240 L296 200 L256 220 Z"/>
  </g>
</svg>
