<svg xmlns="http://www.w3.org/2000/svg" width="192" height="192" viewBox="0 0 192 192">
  <defs>
    <linearGradient id="bg" x1="0%" y1="0%" x2="100%" y2="100%">
      <stop offset="0%" style="stop-color:#007AFF"/>
      <stop offset="100%" style="stop-color:#5856D6"/>
    </linearGradient>
  </defs>
  <rect width="192" height="192" rx="40" fill="url(#bg)"/>
  <g fill="white">
    <path d="M96 40c-20 0-36 16-36 36v12h-4c-6.6 0-12 5.4-12 12v48c0 6.6 5.4 12 12 12h80c6.6 0 12-5.4 12-12v-48c0-6.6-5.4-12-12-12h-4V76c0-20-16-36-36-36zm0 16c11 0 20 9 20 20v12H76V76c0-11 9-20 20-20z"/>
    <circle cx="96" cy="120" r="8"/>
  </g>
</svg>
